<mxfile host="Electron" modified="2023-07-08T11:08:50.975Z" agent="Mozilla/5.0 (Macintosh; Intel Mac OS X 10_15_7) AppleWebKit/537.36 (KHTML, like Gecko) draw.io/21.5.1 Chrome/112.0.5615.204 Electron/24.6.0 Safari/537.36" etag="0zp-AmIV-0o8D20GxOD9" version="21.5.1" type="device">
  <diagram name="Page-1" id="RLs9IP1Vo1f7_ANe0kgh">
    <mxGraphModel dx="768" dy="589" grid="1" gridSize="10" guides="1" tooltips="1" connect="1" arrows="1" fold="1" page="1" pageScale="1" pageWidth="827" pageHeight="1169" math="0" shadow="0">
      <root>
        <mxCell id="0" />
        <mxCell id="1" parent="0" />
        <mxCell id="iQfNbUlySbJhsj274alT-29" value="Ensure&lt;br&gt;Desired&lt;br&gt;State" style="edgeStyle=orthogonalEdgeStyle;rounded=0;orthogonalLoop=1;jettySize=auto;html=1;entryX=1;entryY=0.5;entryDx=0;entryDy=0;entryPerimeter=0;exitX=0.995;exitY=0.63;exitDx=0;exitDy=0;exitPerimeter=0;strokeWidth=3;strokeColor=#00994D;startArrow=classic;startFill=1;labelPosition=right;verticalLabelPosition=bottom;align=left;verticalAlign=top;spacingBottom=0;spacingTop=-11;" edge="1" parent="1" source="iQfNbUlySbJhsj274alT-2" target="iQfNbUlySbJhsj274alT-5">
          <mxGeometry relative="1" as="geometry" />
        </mxCell>
        <mxCell id="iQfNbUlySbJhsj274alT-2" value="Resource" style="sketch=0;html=1;dashed=0;whitespace=wrap;fillColor=#2875E2;strokeColor=#ffffff;points=[[0.005,0.63,0],[0.1,0.2,0],[0.9,0.2,0],[0.5,0,0],[0.995,0.63,0],[0.72,0.99,0],[0.5,1,0],[0.28,0.99,0]];verticalLabelPosition=bottom;align=center;verticalAlign=top;shape=mxgraph.kubernetes.icon;prIcon=crd;aspect=fixed;fontStyle=1;fontSize=16;" vertex="1" parent="1">
          <mxGeometry x="440" y="170" width="80" height="80" as="geometry" />
        </mxCell>
        <mxCell id="iQfNbUlySbJhsj274alT-3" value="API Server" style="sketch=0;html=1;dashed=0;whitespace=wrap;fillColor=#2875E2;strokeColor=#ffffff;points=[[0.005,0.63,0],[0.1,0.2,0],[0.9,0.2,0],[0.5,0,0],[0.995,0.63,0],[0.72,0.99,0],[0.5,1,0],[0.28,0.99,0]];verticalLabelPosition=bottom;align=center;verticalAlign=top;shape=mxgraph.kubernetes.icon;prIcon=api;fontStyle=1;fontSize=16;" vertex="1" parent="1">
          <mxGeometry x="280" y="30" width="80" height="80" as="geometry" />
        </mxCell>
        <mxCell id="iQfNbUlySbJhsj274alT-25" value="Persist&lt;br&gt;Modification" style="edgeStyle=orthogonalEdgeStyle;rounded=0;orthogonalLoop=1;jettySize=auto;html=1;startArrow=classic;startFill=1;endArrow=none;endFill=0;labelPosition=right;verticalLabelPosition=middle;align=left;verticalAlign=middle;fillColor=#fff2cc;strokeColor=#d6b656;strokeWidth=3;labelBackgroundColor=none;spacingLeft=10;" edge="1" parent="1" source="iQfNbUlySbJhsj274alT-4">
          <mxGeometry relative="1" as="geometry">
            <mxPoint x="320" y="140" as="targetPoint" />
          </mxGeometry>
        </mxCell>
        <mxCell id="iQfNbUlySbJhsj274alT-4" value="ETCD" style="sketch=0;html=1;dashed=0;whitespace=wrap;fillColor=#2875E2;strokeColor=#ffffff;points=[[0.005,0.63,0],[0.1,0.2,0],[0.9,0.2,0],[0.5,0,0],[0.995,0.63,0],[0.72,0.99,0],[0.5,1,0],[0.28,0.99,0]];verticalLabelPosition=bottom;align=center;verticalAlign=top;shape=mxgraph.kubernetes.icon;prIcon=etcd;aspect=fixed;fontSize=16;fontStyle=1" vertex="1" parent="1">
          <mxGeometry x="280" y="170" width="80" height="80" as="geometry" />
        </mxCell>
        <mxCell id="iQfNbUlySbJhsj274alT-22" value="Query&lt;br&gt;Desired&lt;br&gt;State" style="edgeStyle=orthogonalEdgeStyle;rounded=0;orthogonalLoop=1;jettySize=auto;html=1;entryX=1;entryY=0.5;entryDx=0;entryDy=0;entryPerimeter=0;labelPosition=center;verticalLabelPosition=top;align=center;verticalAlign=bottom;fillColor=#dae8fc;strokeColor=#6c8ebf;strokeWidth=3;" edge="1" parent="1" source="iQfNbUlySbJhsj274alT-5" target="iQfNbUlySbJhsj274alT-3">
          <mxGeometry relative="1" as="geometry" />
        </mxCell>
        <mxCell id="iQfNbUlySbJhsj274alT-5" value="Operator" style="sketch=0;html=1;dashed=0;whitespace=wrap;fillColor=#2875E2;strokeColor=#ffffff;points=[[0.005,0.63,0],[0.1,0.2,0],[0.9,0.2,0],[0.5,0,0],[0.995,0.63,0],[0.72,0.99,0],[0.5,1,0],[0.28,0.99,0]];verticalLabelPosition=bottom;align=center;verticalAlign=top;shape=mxgraph.kubernetes.icon;prIcon=master;fontStyle=1;fontSize=16;" vertex="1" parent="1">
          <mxGeometry x="440" y="30" width="80" height="80" as="geometry" />
        </mxCell>
        <mxCell id="iQfNbUlySbJhsj274alT-27" value="Modify Resource" style="edgeStyle=orthogonalEdgeStyle;rounded=0;orthogonalLoop=1;jettySize=auto;html=1;fillColor=#f8cecc;strokeColor=#b85450;strokeWidth=3;" edge="1" parent="1" source="iQfNbUlySbJhsj274alT-17" target="iQfNbUlySbJhsj274alT-3">
          <mxGeometry relative="1" as="geometry" />
        </mxCell>
        <mxCell id="iQfNbUlySbJhsj274alT-17" value="" style="shape=actor;whiteSpace=wrap;html=1;" vertex="1" parent="1">
          <mxGeometry x="100" y="40" width="40" height="60" as="geometry" />
        </mxCell>
      </root>
    </mxGraphModel>
  </diagram>
</mxfile>
